%
M48
M72
T01C0.0080
T02C0.0197
T03C0.0236
T04C0.0315
T05C0.0354
T06C0.0400
%
T01
X10074Y4218
X9964Y7418
X9794Y10678
X9204Y13708
X10611Y15830
X11934Y16098
X13204Y16148
X13204Y15818
X15054Y15408
X15274Y15718
X15294Y16108
X16584Y15018
X16834Y15318
X17324Y15208
X17604Y14958
X18754Y15788
X19274Y15738
X19594Y15348
X17634Y18388
X16931Y18331
X17104Y18928
X16964Y20408
X17484Y21318
X16944Y21938
X16654Y22138
X15514Y21928
X15484Y21438
X14634Y21148
X13974Y21408
X13544Y21448
X13024Y21398
X12517Y22417
X13414Y20418
X13714Y20078
X13974Y19788
X14294Y20378
X14684Y20138
X15494Y19128
X15624Y18778
X15494Y17778
X12226Y19740
X10654Y19358
X10415Y20551
X8934Y20058
X8765Y20637
X7854Y22118
X6804Y20638
X7384Y17588
X7544Y17058
X10073Y17522
X10670Y17511
X11903Y17603
X15305Y11927
X17434Y11768
X17484Y8588
X17354Y5378
X19914Y18928
X19722Y19520
X19294Y20528
X17484Y24518
X16458Y25744
X17424Y27708
X9194Y26478
T02
X13763Y22500
X14255Y22500
X14747Y22500
X15239Y22500
X15273Y14543
X14781Y14543
X14289Y14543
X13797Y14543
X13305Y14543
X12813Y14543
X12321Y14543
X12826Y9472
X13318Y9472
T03
X3214Y4468
X3096Y7665
X3859Y11909
X3281Y14889
X3230Y16437
X3879Y19815
X3064Y23610
X3245Y26822
X11274Y24488
X23466Y19976
X24017Y16464
X24068Y14901
X23450Y11476
X24415Y7681
X24249Y4468
X14340Y6240
X24198Y23622
X24084Y26815
T04
X14945Y24176
X14158Y24176
T05
X16206Y26571
X17387Y26571
X14943Y9562
X14943Y8381
T06
X26013Y12118
X26013Y13118
X26013Y14118
X26013Y15118
X26013Y16118
X26013Y17118
X26013Y18118
X26013Y19118
X1450Y19161
X1450Y18161
X1450Y17161
X1450Y16161
X1450Y15161
X1450Y14161
X1450Y13161
X1450Y12161
M30
