G75*
%MOIN*%
%OFA0B0*%
%FSLAX24Y24*%
%IPPOS*%
%LPD*%
%AMOC8*
5,1,8,0,0,1.08239X$1,22.5*
%
%ADD10R,0.0984X0.0591*%
%ADD11R,0.2756X0.2756*%
%ADD12R,0.0276X0.0354*%
%ADD13R,0.0354X0.0276*%
D10*
X006572Y003567D03*
X006572Y005378D03*
X006572Y006764D03*
X006572Y008576D03*
X006572Y009952D03*
X006572Y011763D03*
X006572Y013138D03*
X006572Y014949D03*
X006572Y016326D03*
X006572Y018137D03*
X006572Y019520D03*
X006572Y021331D03*
X006572Y022712D03*
X006572Y024523D03*
X006572Y025902D03*
X006572Y027713D03*
X020732Y027713D03*
X020732Y025902D03*
X020732Y024523D03*
X020732Y022712D03*
X020732Y021331D03*
X020732Y019520D03*
X020732Y018137D03*
X020732Y016326D03*
X020732Y014949D03*
X020732Y013138D03*
X020732Y011763D03*
X020732Y009952D03*
X020732Y008576D03*
X020732Y006764D03*
X020732Y005378D03*
X020732Y003567D03*
D11*
X003855Y004473D03*
X003855Y007670D03*
X003855Y010857D03*
X003855Y014043D03*
X003855Y017232D03*
X003855Y020425D03*
X003855Y023617D03*
X003855Y026807D03*
X023448Y026807D03*
X023448Y023617D03*
X023448Y020425D03*
X023448Y017232D03*
X023448Y014043D03*
X023448Y010857D03*
X023448Y007670D03*
X023448Y004473D03*
D12*
X019490Y005378D03*
X018978Y005378D03*
X018978Y008588D03*
X019490Y008588D03*
X019490Y011768D03*
X018978Y011768D03*
X018978Y014948D03*
X019490Y014948D03*
X019490Y018138D03*
X018978Y018138D03*
X018978Y021328D03*
X019490Y021328D03*
X019490Y024518D03*
X018978Y024518D03*
X018978Y027708D03*
X019490Y027708D03*
X008330Y025918D03*
X007818Y025918D03*
X007818Y022718D03*
X008330Y022718D03*
X008330Y019518D03*
X007818Y019518D03*
X007818Y016328D03*
X008330Y016328D03*
X008330Y013138D03*
X007818Y013138D03*
X007818Y009978D03*
X008330Y009978D03*
X008330Y006748D03*
X007818Y006748D03*
X007818Y003508D03*
X008330Y003508D03*
X009268Y003498D03*
X009780Y003498D03*
D13*
X009294Y006232D03*
X009294Y006744D03*
X009294Y009462D03*
X009294Y009974D03*
X009294Y012622D03*
X009294Y013134D03*
X009294Y015822D03*
X009294Y016334D03*
X009294Y019022D03*
X009294Y019534D03*
X009294Y022202D03*
X009294Y022714D03*
X009294Y025422D03*
X009294Y025934D03*
X018034Y027202D03*
X018034Y027714D03*
X018034Y024524D03*
X018034Y024012D03*
X018034Y021324D03*
X018034Y020812D03*
X018424Y018154D03*
X018424Y017642D03*
X018034Y014954D03*
X018034Y014442D03*
X018034Y011764D03*
X018034Y011252D03*
X018034Y008594D03*
X018034Y008082D03*
X018034Y005374D03*
X018034Y004862D03*
M02*
