G75*
%MOIN*%
%OFA0B0*%
%FSLAX24Y24*%
%IPPOS*%
%LPD*%
%AMOC8*
5,1,8,0,0,1.08239X$1,22.5*
%
%ADD10C,0.0052*%
%ADD11R,0.0177X0.0130*%
%ADD12R,0.0130X0.0177*%
%ADD13R,0.2362X0.2362*%
%ADD14R,0.0335X0.0110*%
%ADD15R,0.0110X0.0335*%
%ADD16R,0.0421X0.0323*%
%ADD17R,0.0118X0.0118*%
%ADD18R,0.0354X0.0394*%
%ADD19R,0.0276X0.0354*%
%ADD20R,0.0354X0.0276*%
%ADD21R,0.0236X0.0315*%
%ADD22R,0.0138X0.0315*%
%ADD23R,0.0266X0.0098*%
%ADD24R,0.0472X0.0315*%
%ADD25R,0.0709X0.0630*%
%ADD26R,0.0591X0.0276*%
%ADD27R,0.0315X0.0394*%
%ADD28R,0.0315X0.0472*%
%ADD29R,0.0276X0.0591*%
%ADD30R,0.0394X0.0315*%
%ADD31R,0.0984X0.0591*%
%ADD32R,0.2756X0.2756*%
D10*
X012473Y016475D02*
X012473Y016599D01*
X012473Y016475D02*
X012395Y016475D01*
X012395Y016599D01*
X012473Y016599D01*
X012473Y016526D02*
X012395Y016526D01*
X012395Y016577D02*
X012473Y016577D01*
X012285Y016710D02*
X012161Y016710D01*
X012161Y016788D01*
X012285Y016788D01*
X012285Y016710D01*
X012285Y016761D02*
X012161Y016761D01*
X012161Y019269D02*
X012285Y019269D01*
X012161Y019269D02*
X012161Y019347D01*
X012285Y019347D01*
X012285Y019269D01*
X012285Y019320D02*
X012161Y019320D01*
X012395Y019457D02*
X012395Y019581D01*
X012473Y019581D01*
X012473Y019457D01*
X012395Y019457D01*
X012395Y019508D02*
X012473Y019508D01*
X012473Y019559D02*
X012395Y019559D01*
X014954Y019581D02*
X014954Y019457D01*
X014954Y019581D02*
X015032Y019581D01*
X015032Y019457D01*
X014954Y019457D01*
X014954Y019508D02*
X015032Y019508D01*
X015032Y019559D02*
X014954Y019559D01*
X015143Y019347D02*
X015267Y019347D01*
X015267Y019269D01*
X015143Y019269D01*
X015143Y019347D01*
X015143Y019320D02*
X015267Y019320D01*
X015267Y016788D02*
X015143Y016788D01*
X015267Y016788D02*
X015267Y016710D01*
X015143Y016710D01*
X015143Y016788D01*
X015143Y016761D02*
X015267Y016761D01*
X015032Y016599D02*
X015032Y016475D01*
X014954Y016475D01*
X014954Y016599D01*
X015032Y016599D01*
X015032Y016526D02*
X014954Y016526D01*
X014954Y016577D02*
X015032Y016577D01*
D11*
X015205Y017004D03*
X015205Y017260D03*
X015205Y017516D03*
X015205Y017772D03*
X015205Y018028D03*
X015205Y018284D03*
X015205Y018540D03*
X015205Y018796D03*
X015205Y019052D03*
X012223Y019052D03*
X012223Y018796D03*
X012223Y018540D03*
X012223Y018284D03*
X012223Y018028D03*
X012223Y017772D03*
X012223Y017516D03*
X012223Y017260D03*
X012223Y017004D03*
D12*
X012690Y016537D03*
X012946Y016537D03*
X013202Y016537D03*
X013458Y016537D03*
X013714Y016537D03*
X013970Y016537D03*
X014226Y016537D03*
X014481Y016537D03*
X014737Y016537D03*
X014737Y019519D03*
X014481Y019519D03*
X014226Y019519D03*
X013970Y019519D03*
X013714Y019519D03*
X013458Y019519D03*
X013202Y019519D03*
X012946Y019519D03*
X012690Y019519D03*
D13*
X013714Y018028D03*
D14*
X017616Y019393D03*
X017616Y019983D03*
X019171Y019983D03*
X019171Y019393D03*
X008931Y019663D03*
X008931Y020253D03*
X007376Y020253D03*
X007376Y019663D03*
D15*
X007662Y019269D03*
X007859Y019269D03*
X008055Y019269D03*
X008252Y019269D03*
X008449Y019269D03*
X008646Y019269D03*
X008646Y020637D03*
X008449Y020637D03*
X008252Y020637D03*
X008055Y020637D03*
X007859Y020637D03*
X007662Y020637D03*
X017902Y020367D03*
X018099Y020367D03*
X018295Y020367D03*
X018492Y020367D03*
X018689Y020367D03*
X018886Y020367D03*
X018886Y018999D03*
X018689Y018999D03*
X018492Y018999D03*
X018295Y018999D03*
X018099Y018999D03*
X017902Y018999D03*
D16*
X018124Y019468D03*
X018124Y019909D03*
X018663Y019909D03*
X018663Y019468D03*
X008423Y019738D03*
X008423Y020179D03*
X007884Y020179D03*
X007884Y019738D03*
D17*
X010415Y018932D03*
X010415Y018695D03*
X011223Y018414D03*
X011467Y018414D03*
X011725Y018334D03*
X011969Y018334D03*
X011968Y017988D03*
X011724Y017988D03*
X013468Y016145D03*
X013468Y015909D03*
X015865Y017582D03*
X015871Y017806D03*
X016115Y017806D03*
X016109Y017582D03*
X011483Y020008D03*
X011239Y020008D03*
D18*
X011048Y019571D03*
X011658Y019571D03*
X011658Y018842D03*
X011048Y018842D03*
D19*
X012403Y020671D03*
X012915Y020671D03*
X016948Y017268D03*
X016938Y016798D03*
X016938Y016318D03*
X017450Y016318D03*
X017450Y016798D03*
X017460Y017268D03*
X013954Y011159D03*
X013442Y011159D03*
X013245Y026681D03*
X013757Y026681D03*
D20*
X014674Y026925D03*
X014674Y026413D03*
X011413Y017264D03*
X011413Y016752D03*
D21*
X015819Y017268D03*
X016449Y017268D03*
D22*
X016409Y016798D03*
X016409Y016318D03*
X015858Y016318D03*
X015858Y016798D03*
D23*
X014270Y012353D03*
X014270Y012157D03*
X014270Y011960D03*
X014270Y011763D03*
X013158Y011763D03*
X013158Y011960D03*
X013158Y012157D03*
X013158Y012353D03*
D24*
X012618Y011049D03*
X012618Y011758D03*
D25*
X015287Y011872D03*
X015287Y012974D03*
D26*
X014254Y009857D03*
X014254Y008676D03*
X014254Y008085D03*
D27*
X014530Y007534D03*
X015357Y007534D03*
X015357Y010408D03*
X014530Y010408D03*
D28*
X014108Y013158D03*
X013399Y013158D03*
D29*
X015911Y025883D03*
X017092Y025883D03*
X017682Y025883D03*
D30*
X018233Y026158D03*
X018233Y026985D03*
X015359Y026985D03*
X015359Y026158D03*
D31*
X013800Y025756D03*
X013800Y027567D03*
D32*
X011084Y026661D03*
M02*
