G75*
%MOIN*%
%OFA0B0*%
%FSLAX24Y24*%
%IPPOS*%
%LPD*%
%AMOC8*
5,1,8,0,0,1.08239X$1,22.5*
%
%ADD10C,0.0100*%
%ADD11C,0.0030*%
%ADD12C,0.0020*%
%ADD13C,0.0010*%
%ADD14C,0.0050*%
%ADD15C,0.0008*%
%ADD16R,0.0118X0.0079*%
%ADD17C,0.0039*%
%ADD18C,0.0080*%
%ADD19R,0.4035X0.0148*%
%ADD20C,0.0059*%
%ADD21C,0.0004*%
%ADD22R,0.0250X0.0250*%
%ADD23C,0.0060*%
%ADD24R,0.0160X0.0280*%
%ADD25R,0.1575X0.0148*%
%ADD26R,0.2559X0.0148*%
D10*
X014879Y019158D02*
X014881Y019176D01*
X014886Y019193D01*
X014895Y019208D01*
X014907Y019221D01*
X014921Y019232D01*
X014938Y019239D01*
X014955Y019243D01*
X014973Y019243D01*
X014990Y019239D01*
X015006Y019232D01*
X015021Y019221D01*
X015033Y019208D01*
X015042Y019193D01*
X015047Y019176D01*
X015049Y019158D01*
X015047Y019140D01*
X015042Y019123D01*
X015033Y019108D01*
X015021Y019095D01*
X015007Y019084D01*
X014990Y019077D01*
X014973Y019073D01*
X014955Y019073D01*
X014938Y019077D01*
X014922Y019084D01*
X014907Y019095D01*
X014895Y019108D01*
X014886Y019123D01*
X014881Y019140D01*
X014879Y019158D01*
D11*
X015858Y017395D02*
X015810Y017347D01*
X015810Y017299D01*
X015858Y017250D01*
X015810Y017202D01*
X015810Y017154D01*
X015858Y017105D01*
X015955Y017105D01*
X016003Y017154D01*
X016104Y017154D02*
X016104Y017202D01*
X016153Y017250D01*
X016249Y017250D01*
X016298Y017299D01*
X016298Y017347D01*
X016249Y017395D01*
X016153Y017395D01*
X016104Y017347D01*
X016003Y017347D02*
X015955Y017395D01*
X015858Y017395D01*
X015858Y017250D02*
X015906Y017250D01*
X016104Y017154D02*
X016153Y017105D01*
X016249Y017105D01*
X016298Y017154D01*
X016399Y017154D02*
X016399Y017395D01*
X016592Y017395D02*
X016592Y017154D01*
X016544Y017105D01*
X016447Y017105D01*
X016399Y017154D01*
X016201Y017057D02*
X016201Y017444D01*
X016221Y016952D02*
X016221Y016565D01*
X016269Y016613D02*
X016172Y016613D01*
X016124Y016661D01*
X016124Y016710D01*
X016172Y016758D01*
X016269Y016758D01*
X016318Y016807D01*
X016318Y016855D01*
X016269Y016903D01*
X016172Y016903D01*
X016124Y016855D01*
X016023Y016758D02*
X015829Y016758D01*
X015878Y016613D02*
X015878Y016903D01*
X016023Y016758D01*
X016269Y016613D02*
X016318Y016661D01*
X016419Y016661D02*
X016419Y016903D01*
X016612Y016903D02*
X016612Y016661D01*
X016564Y016613D01*
X016467Y016613D01*
X016419Y016661D01*
X016379Y016364D02*
X016379Y016122D01*
X016428Y016074D01*
X016524Y016074D01*
X016573Y016122D01*
X016573Y016364D01*
X016278Y016316D02*
X016230Y016364D01*
X016133Y016364D01*
X016085Y016316D01*
X016133Y016219D02*
X016230Y016219D01*
X016278Y016267D01*
X016278Y016316D01*
X016181Y016412D02*
X016181Y016025D01*
X016133Y016074D02*
X016085Y016122D01*
X016085Y016170D01*
X016133Y016219D01*
X016133Y016074D02*
X016230Y016074D01*
X016278Y016122D01*
X015983Y016122D02*
X015935Y016074D01*
X015838Y016074D01*
X015790Y016122D01*
X015790Y016219D01*
X015838Y016267D01*
X015887Y016267D01*
X015983Y016219D01*
X015983Y016364D01*
X015790Y016364D01*
X013788Y013865D02*
X013788Y013478D01*
X013836Y013526D02*
X013739Y013526D01*
X013691Y013575D01*
X013691Y013623D01*
X013739Y013672D01*
X013836Y013672D01*
X013884Y013720D01*
X013884Y013768D01*
X013836Y013817D01*
X013739Y013817D01*
X013691Y013768D01*
X013590Y013768D02*
X013541Y013817D01*
X013445Y013817D01*
X013396Y013768D01*
X013396Y013720D01*
X013590Y013526D01*
X013396Y013526D01*
X013836Y013526D02*
X013884Y013575D01*
X013986Y013575D02*
X013986Y013817D01*
X014179Y013817D02*
X014179Y013575D01*
X014131Y013526D01*
X014034Y013526D01*
X013986Y013575D01*
X013709Y012377D02*
X013709Y011990D01*
X013757Y012038D02*
X013661Y012038D01*
X013612Y012087D01*
X013612Y012135D01*
X013661Y012183D01*
X013757Y012183D01*
X013806Y012232D01*
X013806Y012280D01*
X013757Y012328D01*
X013661Y012328D01*
X013612Y012280D01*
X013511Y012232D02*
X013414Y012328D01*
X013414Y012038D01*
X013318Y012038D02*
X013511Y012038D01*
X013757Y012038D02*
X013806Y012087D01*
X013907Y012087D02*
X013907Y012328D01*
X014100Y012328D02*
X014100Y012087D01*
X014052Y012038D01*
X013955Y012038D01*
X013907Y012087D01*
X020031Y018373D02*
X020031Y018663D01*
X020128Y018663D02*
X019934Y018663D01*
X020229Y018566D02*
X020229Y018373D01*
X020229Y018518D02*
X020422Y018518D01*
X020422Y018566D02*
X020326Y018663D01*
X020229Y018566D01*
X020422Y018566D02*
X020422Y018373D01*
X020524Y018421D02*
X020524Y018615D01*
X020572Y018663D01*
X020717Y018663D01*
X020717Y018373D01*
X020572Y018373D01*
X020524Y018421D01*
X020818Y018325D02*
X021012Y018325D01*
X021113Y018373D02*
X021113Y018663D01*
X021306Y018663D02*
X021306Y018373D01*
X021210Y018470D01*
X021113Y018373D01*
X021407Y018421D02*
X021407Y018615D01*
X021456Y018663D01*
X021553Y018663D01*
X021601Y018615D01*
X021601Y018421D01*
X021553Y018373D01*
X021456Y018373D01*
X021407Y018421D01*
X021702Y018373D02*
X021799Y018470D01*
X021751Y018470D02*
X021896Y018470D01*
X021896Y018373D02*
X021896Y018663D01*
X021751Y018663D01*
X021702Y018615D01*
X021702Y018518D01*
X021751Y018470D01*
X016364Y022869D02*
X016364Y023159D01*
X016219Y023159D01*
X016171Y023111D01*
X016171Y023014D01*
X016219Y022966D01*
X016364Y022966D01*
X016267Y022966D02*
X016171Y022869D01*
X016069Y022869D02*
X015876Y023159D01*
X016069Y023159D02*
X015876Y022869D01*
X014222Y023744D02*
X014028Y023744D01*
X014125Y023744D02*
X014125Y024034D01*
X014222Y023937D01*
X013443Y023321D02*
X013249Y023321D01*
X013346Y023321D02*
X013346Y023030D01*
X013148Y023030D02*
X012955Y023321D01*
X013148Y023321D02*
X012955Y023030D01*
X011679Y022895D02*
X011679Y022605D01*
X011679Y022702D02*
X011534Y022702D01*
X011486Y022750D01*
X011486Y022847D01*
X011534Y022895D01*
X011679Y022895D01*
X011582Y022702D02*
X011486Y022605D01*
X011384Y022654D02*
X011384Y022847D01*
X011336Y022895D01*
X011239Y022895D01*
X011191Y022847D01*
X011090Y022847D02*
X011041Y022895D01*
X010945Y022895D01*
X010896Y022847D01*
X011090Y022654D01*
X011041Y022605D01*
X010945Y022605D01*
X010896Y022654D01*
X010896Y022847D01*
X011090Y022847D02*
X011090Y022654D01*
X011191Y022654D02*
X011239Y022605D01*
X011336Y022605D01*
X011384Y022654D01*
X009707Y023693D02*
X009658Y023645D01*
X009562Y023645D01*
X009513Y023693D01*
X009412Y023693D02*
X009364Y023645D01*
X009267Y023645D01*
X009219Y023693D01*
X009219Y023886D01*
X009267Y023935D01*
X009364Y023935D01*
X009412Y023886D01*
X009412Y023693D01*
X009513Y023886D02*
X009562Y023935D01*
X009658Y023935D01*
X009707Y023886D01*
X009707Y023693D01*
X009117Y023645D02*
X008924Y023645D01*
X008823Y023596D02*
X008629Y023596D01*
X008528Y023645D02*
X008383Y023645D01*
X008335Y023693D01*
X008335Y023886D01*
X008383Y023935D01*
X008528Y023935D01*
X008528Y023645D01*
X008233Y023645D02*
X008233Y023838D01*
X008137Y023935D01*
X008040Y023838D01*
X008040Y023645D01*
X008040Y023790D02*
X008233Y023790D01*
X007939Y023935D02*
X007745Y023935D01*
X007842Y023935D02*
X007842Y023645D01*
X009117Y023645D02*
X009117Y023935D01*
X010879Y020899D02*
X010879Y020609D01*
X010976Y020609D02*
X010782Y020609D01*
X010976Y020803D02*
X010879Y020899D01*
X011077Y020851D02*
X011125Y020899D01*
X011222Y020899D01*
X011270Y020851D01*
X011270Y020657D01*
X011222Y020609D01*
X011125Y020609D01*
X011077Y020657D01*
X011126Y020478D02*
X011077Y020430D01*
X011077Y020381D01*
X011271Y020188D01*
X011077Y020188D01*
X011126Y020478D02*
X011223Y020478D01*
X011271Y020430D01*
X011372Y020430D02*
X011420Y020478D01*
X011517Y020478D01*
X011566Y020430D01*
X011566Y020236D01*
X011517Y020188D01*
X011420Y020188D01*
X011372Y020236D01*
X011667Y020188D02*
X011763Y020285D01*
X011715Y020285D02*
X011860Y020285D01*
X011860Y020188D02*
X011860Y020478D01*
X011715Y020478D01*
X011667Y020430D01*
X011667Y020333D01*
X011715Y020285D01*
X011565Y020609D02*
X011565Y020899D01*
X011420Y020899D01*
X011371Y020851D01*
X011371Y020754D01*
X011420Y020706D01*
X011565Y020706D01*
X011468Y020706D02*
X011371Y020609D01*
X016561Y026676D02*
X016561Y026738D01*
X016314Y026985D01*
X016314Y027046D01*
X016561Y027046D01*
X016682Y026985D02*
X016744Y027046D01*
X016867Y027046D01*
X016929Y026985D01*
X016929Y026923D01*
X016867Y026861D01*
X016744Y026861D01*
X016682Y026799D01*
X016682Y026738D01*
X016744Y026676D01*
X016867Y026676D01*
X016929Y026738D01*
X017050Y026738D02*
X017050Y027046D01*
X017297Y027046D02*
X017297Y026738D01*
X017235Y026676D01*
X017112Y026676D01*
X017050Y026738D01*
X016805Y026614D02*
X016805Y027108D01*
X011762Y027389D02*
X011762Y027759D01*
X011638Y027635D01*
X011515Y027759D01*
X011515Y027389D01*
X011393Y027389D02*
X011393Y027759D01*
X011147Y027759D01*
X011270Y027574D02*
X011393Y027574D01*
X011025Y027327D02*
X010778Y027327D01*
X010657Y027450D02*
X010595Y027389D01*
X010472Y027389D01*
X010410Y027450D01*
X010289Y027450D02*
X010227Y027389D01*
X010103Y027389D01*
X010042Y027450D01*
X010042Y027697D01*
X010103Y027759D01*
X010227Y027759D01*
X010289Y027697D01*
X010289Y027635D01*
X010227Y027574D01*
X010042Y027574D01*
X010410Y027697D02*
X010472Y027759D01*
X010595Y027759D01*
X010657Y027697D01*
X010657Y027450D01*
D12*
X011806Y009280D02*
X011806Y009100D01*
X012077Y009100D01*
X012334Y009108D02*
X012432Y009206D01*
X013712Y009206D01*
X013810Y009108D01*
X013712Y009206D02*
X013712Y009502D01*
X013859Y009502D01*
X013859Y009748D02*
X013712Y009748D01*
X013712Y010141D01*
X012432Y010141D02*
X012432Y009748D01*
X012285Y009748D01*
X012077Y009769D02*
X012077Y009679D01*
X012032Y009634D01*
X011851Y009634D01*
X011806Y009679D01*
X011806Y009769D01*
X011851Y009814D01*
X011942Y009814D01*
X011942Y009724D01*
X012032Y009814D02*
X012077Y009769D01*
X012077Y009901D02*
X012077Y009991D01*
X012077Y009946D02*
X011806Y009946D01*
X011806Y009901D02*
X011806Y009991D01*
X011851Y010079D02*
X011806Y010124D01*
X011806Y010214D01*
X011851Y010259D01*
X011851Y010079D02*
X012032Y010079D01*
X012077Y010124D01*
X012077Y010214D01*
X012032Y010259D01*
X012032Y009547D02*
X011851Y009547D01*
X011806Y009502D01*
X011806Y009412D01*
X011851Y009367D01*
X012032Y009367D01*
X012077Y009412D01*
X012077Y009502D01*
X012032Y009547D01*
X012285Y009502D02*
X012432Y009502D01*
X012432Y009206D01*
X016377Y009218D02*
X016648Y009218D01*
X016648Y009173D02*
X016648Y009263D01*
X016603Y009351D02*
X016422Y009351D01*
X016377Y009396D01*
X016377Y009486D01*
X016422Y009531D01*
X016603Y009531D02*
X016648Y009486D01*
X016648Y009396D01*
X016603Y009351D01*
X016377Y009263D02*
X016377Y009173D01*
X016422Y009086D02*
X016512Y009086D01*
X016512Y008996D01*
X016422Y009086D02*
X016377Y009041D01*
X016377Y008951D01*
X016422Y008906D01*
X016603Y008906D01*
X016648Y008951D01*
X016648Y009041D01*
X016603Y009086D01*
X016603Y008819D02*
X016422Y008819D01*
X016377Y008774D01*
X016377Y008684D01*
X016422Y008639D01*
X016603Y008639D01*
X016648Y008684D01*
X016648Y008774D01*
X016603Y008819D01*
X016377Y008552D02*
X016377Y008372D01*
X016648Y008372D01*
X012326Y013147D02*
X012326Y013418D01*
X012191Y013418D01*
X012146Y013373D01*
X012146Y013283D01*
X012191Y013237D01*
X012326Y013237D01*
X012236Y013237D02*
X012146Y013147D01*
X012059Y013147D02*
X012059Y013328D01*
X011969Y013418D01*
X011879Y013328D01*
X011879Y013147D01*
X011792Y013147D02*
X011612Y013147D01*
X011525Y013147D02*
X011525Y013328D01*
X011435Y013418D01*
X011345Y013328D01*
X011345Y013147D01*
X011258Y013147D02*
X011078Y013328D01*
X011078Y013373D01*
X011123Y013418D01*
X011213Y013418D01*
X011258Y013373D01*
X011345Y013283D02*
X011525Y013283D01*
X011702Y013418D02*
X011702Y013147D01*
X011792Y013328D02*
X011702Y013418D01*
X011879Y013283D02*
X012059Y013283D01*
X011258Y013147D02*
X011078Y013147D01*
X010991Y013147D02*
X010991Y013328D01*
X010901Y013418D01*
X010811Y013328D01*
X010811Y013147D01*
X010724Y013192D02*
X010679Y013147D01*
X010589Y013147D01*
X010544Y013192D01*
X010544Y013237D01*
X010589Y013283D01*
X010634Y013283D01*
X010589Y013283D02*
X010544Y013328D01*
X010544Y013373D01*
X010589Y013418D01*
X010679Y013418D01*
X010724Y013373D01*
X010811Y013283D02*
X010991Y013283D01*
X011829Y014178D02*
X011927Y014277D01*
X015667Y014277D01*
X015766Y014178D01*
X015667Y014277D02*
X015667Y014572D01*
X015815Y014572D01*
X015815Y014818D02*
X015667Y014818D01*
X015667Y015212D01*
X011927Y015212D02*
X011927Y014818D01*
X011779Y014818D01*
X011779Y014572D02*
X011927Y014572D01*
X011927Y014277D01*
X013369Y021830D02*
X013369Y022224D01*
X013222Y022224D01*
X013222Y022470D02*
X013369Y022470D01*
X013369Y022765D01*
X013271Y022864D01*
X013369Y022765D02*
X015633Y022765D01*
X015731Y022864D01*
X015633Y022765D02*
X015633Y022470D01*
X015781Y022470D01*
X015781Y022224D02*
X015633Y022224D01*
X015633Y021830D01*
X015966Y023537D02*
X015921Y023582D01*
X015921Y023672D01*
X015966Y023717D01*
X015966Y023804D02*
X015921Y023849D01*
X015921Y023939D01*
X015966Y023984D01*
X016191Y023984D01*
X016191Y024071D02*
X016191Y024206D01*
X016146Y024251D01*
X016056Y024251D01*
X016011Y024206D01*
X016011Y024071D01*
X016011Y024161D02*
X015921Y024251D01*
X015921Y024338D02*
X016191Y024338D01*
X016191Y024473D01*
X016146Y024518D01*
X016056Y024518D01*
X016011Y024473D01*
X016011Y024338D01*
X016011Y024428D02*
X015921Y024518D01*
X015921Y024605D02*
X015921Y024785D01*
X015921Y024872D02*
X016191Y024872D01*
X015921Y025052D01*
X016191Y025052D01*
X016191Y025139D02*
X016191Y025319D01*
X016191Y025229D02*
X015921Y025229D01*
X016191Y024785D02*
X016191Y024605D01*
X015921Y024605D01*
X016056Y024605D02*
X016056Y024695D01*
X015921Y024071D02*
X016191Y024071D01*
X016191Y023804D02*
X015966Y023804D01*
X016146Y023717D02*
X016191Y023672D01*
X016191Y023582D01*
X016146Y023537D01*
X015966Y023537D01*
X016044Y027731D02*
X015864Y027731D01*
X015777Y027731D02*
X015777Y028002D01*
X015597Y027731D01*
X015597Y028002D01*
X015510Y028002D02*
X015330Y028002D01*
X015420Y028002D02*
X015420Y027731D01*
X015864Y028002D02*
X016044Y028002D01*
X016044Y027731D01*
X016131Y027731D02*
X016221Y027821D01*
X016176Y027821D02*
X016311Y027821D01*
X016311Y027731D02*
X016311Y028002D01*
X016176Y028002D01*
X016131Y027957D01*
X016131Y027867D01*
X016176Y027821D01*
X016044Y027867D02*
X015954Y027867D01*
X016398Y027867D02*
X016443Y027821D01*
X016578Y027821D01*
X016578Y027731D02*
X016578Y028002D01*
X016443Y028002D01*
X016398Y027957D01*
X016398Y027867D01*
X016488Y027821D02*
X016398Y027731D01*
X016665Y027776D02*
X016665Y028002D01*
X016845Y028002D02*
X016845Y027776D01*
X016800Y027731D01*
X016710Y027731D01*
X016665Y027776D01*
X016932Y027776D02*
X016977Y027731D01*
X017067Y027731D01*
X017112Y027776D01*
X017112Y027957D01*
X017067Y028002D01*
X016977Y028002D01*
X016932Y027957D01*
D13*
X011070Y020072D02*
X011095Y020047D01*
X011095Y019947D01*
X011070Y019922D01*
X011020Y019922D01*
X010995Y019947D01*
X010995Y020047D01*
X011020Y020072D01*
X011070Y020072D01*
X010947Y020047D02*
X010947Y020022D01*
X010922Y019997D01*
X010872Y019997D01*
X010847Y019972D01*
X010847Y019947D01*
X010872Y019922D01*
X010922Y019922D01*
X010947Y019947D01*
X010947Y020047D02*
X010922Y020072D01*
X010872Y020072D01*
X010847Y020047D01*
X010800Y020047D02*
X010800Y019947D01*
X010775Y019922D01*
X010725Y019922D01*
X010700Y019947D01*
X010706Y019959D02*
X010797Y019959D01*
X010797Y019927D02*
X010706Y019927D01*
X010752Y019959D02*
X010752Y020019D01*
X010767Y020051D02*
X010767Y020111D01*
X010706Y020051D01*
X010706Y020111D01*
X010725Y020072D02*
X010775Y020072D01*
X010800Y020047D01*
X010797Y020019D02*
X010706Y020019D01*
X010700Y020047D02*
X010725Y020072D01*
X010797Y019927D02*
X010767Y019897D01*
X010797Y019867D01*
X010706Y019867D01*
X010722Y019835D02*
X010737Y019835D01*
X010752Y019820D01*
X010752Y019775D01*
X010722Y019775D01*
X010706Y019790D01*
X010706Y019820D01*
X010722Y019835D01*
X010782Y019805D02*
X010752Y019775D01*
X010782Y019805D02*
X010797Y019835D01*
X010797Y019713D02*
X010706Y019713D01*
X010706Y019683D02*
X010706Y019743D01*
X010767Y019683D02*
X010797Y019713D01*
X010797Y019544D02*
X010706Y019544D01*
X010706Y019529D02*
X010706Y019559D01*
X010706Y019497D02*
X010706Y019452D01*
X010722Y019437D01*
X010737Y019452D01*
X010737Y019497D01*
X010752Y019497D02*
X010706Y019497D01*
X010752Y019497D02*
X010767Y019482D01*
X010767Y019452D01*
X010767Y019406D02*
X010767Y019376D01*
X010782Y019391D02*
X010722Y019391D01*
X010706Y019406D01*
X010706Y019344D02*
X010797Y019284D01*
X010797Y019344D02*
X010706Y019284D01*
X010706Y019159D02*
X010706Y019099D01*
X010722Y019099D01*
X010782Y019159D01*
X010797Y019159D01*
X010797Y019099D01*
X010782Y019067D02*
X010797Y019052D01*
X010797Y019022D01*
X010782Y019007D01*
X010767Y019007D01*
X010752Y019022D01*
X010752Y019052D01*
X010737Y019067D01*
X010722Y019067D01*
X010706Y019052D01*
X010706Y019022D01*
X010722Y019007D01*
X010737Y019007D01*
X010752Y019022D01*
X010752Y019052D02*
X010767Y019067D01*
X010782Y019067D01*
X010797Y019529D02*
X010797Y019544D01*
X010653Y019897D02*
X010553Y019897D01*
X010505Y019947D02*
X010480Y019922D01*
X010430Y019922D01*
X010405Y019947D01*
X010358Y019922D02*
X010258Y020022D01*
X010258Y020047D01*
X010283Y020072D01*
X010333Y020072D01*
X010358Y020047D01*
X010405Y020047D02*
X010430Y020072D01*
X010480Y020072D01*
X010505Y020047D01*
X010505Y019947D01*
X010358Y019922D02*
X010258Y019922D01*
X010215Y018867D02*
X010215Y018717D01*
X010168Y018742D02*
X010143Y018717D01*
X010093Y018717D01*
X010068Y018742D01*
X010068Y018867D01*
X010020Y018867D02*
X009920Y018717D01*
X009873Y018692D02*
X009773Y018692D01*
X009726Y018717D02*
X009626Y018717D01*
X009578Y018717D02*
X009578Y018867D01*
X009478Y018717D01*
X009478Y018867D01*
X009626Y018867D02*
X009726Y018867D01*
X009726Y018717D01*
X009726Y018792D02*
X009676Y018792D01*
X009920Y018867D02*
X010020Y018717D01*
X010168Y018742D02*
X010168Y018867D01*
X010215Y018867D02*
X010265Y018817D01*
X010315Y018867D01*
X010315Y018717D01*
X010288Y018482D02*
X010288Y018331D01*
X010338Y018331D02*
X010238Y018331D01*
X010338Y018431D02*
X010288Y018482D01*
X010386Y018456D02*
X010411Y018482D01*
X010461Y018482D01*
X010486Y018456D01*
X010486Y018356D01*
X010461Y018331D01*
X010411Y018331D01*
X010386Y018356D01*
X010533Y018306D02*
X010633Y018306D01*
X010680Y018356D02*
X010705Y018331D01*
X010755Y018331D01*
X010780Y018356D01*
X010780Y018456D01*
X010755Y018482D01*
X010705Y018482D01*
X010680Y018456D01*
X010828Y018456D02*
X010853Y018482D01*
X010903Y018482D01*
X010928Y018456D01*
X010928Y018431D01*
X010903Y018406D01*
X010853Y018406D01*
X010828Y018381D01*
X010828Y018356D01*
X010853Y018331D01*
X010903Y018331D01*
X010928Y018356D01*
X010975Y018356D02*
X010975Y018456D01*
X011000Y018482D01*
X011050Y018482D01*
X011075Y018456D01*
X011075Y018356D01*
X011050Y018331D01*
X011000Y018331D01*
X010975Y018356D01*
X010909Y018237D02*
X010834Y018237D01*
X010809Y018212D01*
X010809Y018112D01*
X010834Y018087D01*
X010909Y018087D01*
X010909Y018237D01*
X010762Y018212D02*
X010762Y018112D01*
X010737Y018087D01*
X010687Y018087D01*
X010662Y018112D01*
X010662Y018212D02*
X010687Y018237D01*
X010737Y018237D01*
X010762Y018212D01*
X010956Y018062D02*
X011056Y018062D01*
X011104Y018087D02*
X011204Y018087D01*
X011104Y018187D01*
X011104Y018212D01*
X011129Y018237D01*
X011179Y018237D01*
X011204Y018212D01*
X011251Y018212D02*
X011276Y018237D01*
X011351Y018237D01*
X011351Y018087D01*
X011276Y018087D01*
X011251Y018112D01*
X011251Y018212D01*
X011398Y018212D02*
X011398Y018112D01*
X011423Y018087D01*
X011498Y018087D01*
X011498Y018237D01*
X011423Y018237D01*
X011398Y018212D01*
X011546Y018237D02*
X011546Y018137D01*
X011596Y018087D01*
X011646Y018137D01*
X011646Y018237D01*
X011652Y017859D02*
X011652Y017759D01*
X011602Y017709D01*
X011552Y017759D01*
X011552Y017859D01*
X011505Y017859D02*
X011430Y017859D01*
X011405Y017834D01*
X011405Y017734D01*
X011430Y017709D01*
X011505Y017709D01*
X011505Y017859D01*
X011357Y017859D02*
X011282Y017859D01*
X011257Y017834D01*
X011257Y017734D01*
X011282Y017709D01*
X011357Y017709D01*
X011357Y017859D01*
X011210Y017834D02*
X011185Y017859D01*
X011135Y017859D01*
X011110Y017834D01*
X011110Y017809D01*
X011210Y017709D01*
X011110Y017709D01*
X011063Y017684D02*
X010963Y017684D01*
X010915Y017709D02*
X010840Y017709D01*
X010815Y017734D01*
X010815Y017834D01*
X010840Y017859D01*
X010915Y017859D01*
X010915Y017709D01*
X010768Y017734D02*
X010743Y017709D01*
X010693Y017709D01*
X010668Y017734D01*
X010768Y017734D02*
X010768Y017834D01*
X010743Y017859D01*
X010693Y017859D01*
X010668Y017834D01*
X011699Y017809D02*
X011699Y017709D01*
X011699Y017784D02*
X011799Y017784D01*
X011799Y017809D02*
X011749Y017859D01*
X011699Y017809D01*
X011799Y017809D02*
X011799Y017709D01*
X013663Y016088D02*
X014694Y016088D01*
X014689Y016068D02*
X014639Y016018D01*
X014589Y016068D01*
X014589Y015918D01*
X014542Y015943D02*
X014517Y015918D01*
X014467Y015918D01*
X014442Y015943D01*
X014394Y015918D02*
X014294Y015918D01*
X014247Y015918D02*
X014247Y016068D01*
X014172Y016068D01*
X014147Y016043D01*
X014147Y015993D01*
X014172Y015968D01*
X014247Y015968D01*
X014197Y015968D02*
X014147Y015918D01*
X014100Y015893D02*
X014000Y015893D01*
X013952Y015918D02*
X013952Y016068D01*
X013877Y016068D01*
X013852Y016043D01*
X013852Y015993D01*
X013877Y015968D01*
X013952Y015968D01*
X013805Y015943D02*
X013780Y015918D01*
X013730Y015918D01*
X013705Y015943D01*
X013705Y016068D01*
X013805Y016068D02*
X013805Y015943D01*
X014394Y015918D02*
X014394Y016068D01*
X014442Y016043D02*
X014467Y016068D01*
X014517Y016068D01*
X014542Y016043D01*
X014542Y015943D01*
X014689Y015918D02*
X014689Y016068D01*
X016347Y017534D02*
X016372Y017509D01*
X016422Y017509D01*
X016447Y017534D01*
X016447Y017634D01*
X016422Y017659D01*
X016372Y017659D01*
X016347Y017634D01*
X016376Y017745D02*
X016351Y017770D01*
X016351Y017870D01*
X016376Y017895D01*
X016451Y017895D01*
X016451Y017745D01*
X016376Y017745D01*
X016303Y017770D02*
X016278Y017745D01*
X016228Y017745D01*
X016203Y017770D01*
X016203Y017870D02*
X016228Y017895D01*
X016278Y017895D01*
X016303Y017870D01*
X016303Y017770D01*
X016498Y017720D02*
X016598Y017720D01*
X016645Y017745D02*
X016745Y017745D01*
X016695Y017745D02*
X016695Y017895D01*
X016745Y017845D01*
X016793Y017870D02*
X016818Y017895D01*
X016893Y017895D01*
X016893Y017745D01*
X016818Y017745D01*
X016793Y017770D01*
X016793Y017870D01*
X016940Y017870D02*
X016965Y017895D01*
X017040Y017895D01*
X017040Y017745D01*
X016965Y017745D01*
X016940Y017770D01*
X016940Y017870D01*
X017087Y017895D02*
X017087Y017795D01*
X017137Y017745D01*
X017187Y017795D01*
X017187Y017895D01*
X017235Y017845D02*
X017285Y017895D01*
X017335Y017845D01*
X017335Y017745D01*
X017335Y017820D02*
X017235Y017820D01*
X017235Y017845D02*
X017235Y017745D01*
X017231Y017659D02*
X017231Y017559D01*
X017281Y017509D01*
X017331Y017559D01*
X017331Y017659D01*
X017184Y017659D02*
X017108Y017659D01*
X017083Y017634D01*
X017083Y017534D01*
X017108Y017509D01*
X017184Y017509D01*
X017184Y017659D01*
X017036Y017659D02*
X017036Y017509D01*
X016961Y017509D01*
X016936Y017534D01*
X016936Y017634D01*
X016961Y017659D01*
X017036Y017659D01*
X016889Y017609D02*
X016839Y017659D01*
X016839Y017509D01*
X016889Y017509D02*
X016789Y017509D01*
X016742Y017484D02*
X016641Y017484D01*
X016594Y017509D02*
X016519Y017509D01*
X016494Y017534D01*
X016494Y017634D01*
X016519Y017659D01*
X016594Y017659D01*
X016594Y017509D01*
X009431Y018692D02*
X009331Y018692D01*
X009284Y018717D02*
X009284Y018867D01*
X009209Y018867D01*
X009184Y018842D01*
X009184Y018792D01*
X009209Y018767D01*
X009284Y018767D01*
X009136Y018742D02*
X009111Y018717D01*
X009061Y018717D01*
X009036Y018742D01*
X009036Y018867D01*
X009136Y018867D02*
X009136Y018742D01*
D14*
X007132Y020540D02*
X007134Y020562D01*
X007140Y020583D01*
X007149Y020602D01*
X007162Y020620D01*
X007178Y020635D01*
X007196Y020647D01*
X007216Y020655D01*
X007237Y020660D01*
X007258Y020661D01*
X007280Y020658D01*
X007301Y020651D01*
X007320Y020641D01*
X007337Y020627D01*
X007351Y020611D01*
X007362Y020592D01*
X007370Y020572D01*
X007374Y020551D01*
X007374Y020529D01*
X007370Y020508D01*
X007362Y020488D01*
X007351Y020469D01*
X007337Y020453D01*
X007320Y020439D01*
X007301Y020429D01*
X007280Y020422D01*
X007258Y020419D01*
X007237Y020420D01*
X007216Y020425D01*
X007196Y020433D01*
X007178Y020445D01*
X007162Y020460D01*
X007149Y020478D01*
X007140Y020497D01*
X007134Y020518D01*
X007132Y020540D01*
X013410Y023539D02*
X015713Y023539D01*
X015713Y025310D01*
X013410Y025310D01*
X013410Y023539D01*
X015458Y026060D02*
X015458Y027083D01*
X018135Y027083D01*
X018135Y026060D01*
X015458Y026060D01*
X017372Y020270D02*
X017374Y020292D01*
X017380Y020313D01*
X017389Y020332D01*
X017402Y020350D01*
X017418Y020365D01*
X017436Y020377D01*
X017456Y020385D01*
X017477Y020390D01*
X017498Y020391D01*
X017520Y020388D01*
X017541Y020381D01*
X017560Y020371D01*
X017577Y020357D01*
X017591Y020341D01*
X017602Y020322D01*
X017610Y020302D01*
X017614Y020281D01*
X017614Y020259D01*
X017610Y020238D01*
X017602Y020218D01*
X017591Y020199D01*
X017577Y020183D01*
X017560Y020169D01*
X017541Y020159D01*
X017520Y020152D01*
X017498Y020149D01*
X017477Y020150D01*
X017456Y020155D01*
X017436Y020163D01*
X017418Y020175D01*
X017402Y020190D01*
X017389Y020208D01*
X017380Y020227D01*
X017374Y020248D01*
X017372Y020270D01*
X015455Y010310D02*
X014431Y010310D01*
X014431Y007633D01*
X015455Y007633D01*
X015455Y010310D01*
D15*
X017577Y018969D02*
X019211Y018969D01*
X019211Y020406D01*
X017577Y020406D01*
X017577Y018969D01*
X008971Y019239D02*
X008971Y020676D01*
X007337Y020676D01*
X007337Y019239D01*
X008971Y019239D01*
D16*
X010415Y018814D03*
X013468Y016027D03*
D17*
X011746Y018714D02*
X010959Y018714D01*
X010959Y019699D01*
X011746Y019699D01*
X011746Y018714D01*
X011254Y018734D02*
X011254Y018951D01*
X011136Y019069D01*
X010979Y019069D01*
X014156Y012629D02*
X014158Y012648D01*
X014164Y012666D01*
X014173Y012682D01*
X014185Y012696D01*
X014200Y012708D01*
X014217Y012716D01*
X014235Y012721D01*
X014254Y012722D01*
X014272Y012719D01*
X014290Y012712D01*
X014306Y012703D01*
X014320Y012690D01*
X014330Y012674D01*
X014338Y012657D01*
X014342Y012638D01*
X014342Y012620D01*
X014338Y012601D01*
X014330Y012584D01*
X014320Y012568D01*
X014306Y012555D01*
X014290Y012546D01*
X014272Y012539D01*
X014254Y012536D01*
X014235Y012537D01*
X014217Y012542D01*
X014200Y012550D01*
X014185Y012562D01*
X014173Y012576D01*
X014164Y012592D01*
X014158Y012610D01*
X014156Y012629D01*
D18*
X015825Y014129D02*
X011770Y014129D01*
X011770Y015310D01*
X015825Y015310D01*
X015825Y014129D01*
X013869Y010240D02*
X012275Y010240D01*
X012275Y009059D01*
X013869Y009059D01*
X013869Y010240D01*
X013212Y021732D02*
X013212Y022913D01*
X015791Y022913D01*
X015791Y021732D01*
X013212Y021732D01*
D19*
X013797Y015236D03*
D20*
X015973Y017582D02*
X015975Y017589D01*
X015980Y017594D01*
X015987Y017596D01*
X015994Y017594D01*
X015999Y017589D01*
X016001Y017582D01*
X015999Y017575D01*
X015994Y017570D01*
X015987Y017568D01*
X015980Y017570D01*
X015975Y017575D01*
X015973Y017582D01*
X015979Y017806D02*
X015981Y017813D01*
X015986Y017818D01*
X015993Y017820D01*
X016000Y017818D01*
X016005Y017813D01*
X016007Y017806D01*
X016005Y017799D01*
X016000Y017794D01*
X015993Y017792D01*
X015986Y017794D01*
X015981Y017799D01*
X015979Y017806D01*
X011832Y017988D02*
X011834Y017995D01*
X011839Y018000D01*
X011846Y018002D01*
X011853Y018000D01*
X011858Y017995D01*
X011860Y017988D01*
X011858Y017981D01*
X011853Y017976D01*
X011846Y017974D01*
X011839Y017976D01*
X011834Y017981D01*
X011832Y017988D01*
X011833Y018334D02*
X011835Y018341D01*
X011840Y018346D01*
X011847Y018348D01*
X011854Y018346D01*
X011859Y018341D01*
X011861Y018334D01*
X011859Y018327D01*
X011854Y018322D01*
X011847Y018320D01*
X011840Y018322D01*
X011835Y018327D01*
X011833Y018334D01*
X011331Y018414D02*
X011333Y018421D01*
X011338Y018426D01*
X011345Y018428D01*
X011352Y018426D01*
X011357Y018421D01*
X011359Y018414D01*
X011357Y018407D01*
X011352Y018402D01*
X011345Y018400D01*
X011338Y018402D01*
X011333Y018407D01*
X011331Y018414D01*
X011347Y020008D02*
X011349Y020015D01*
X011354Y020020D01*
X011361Y020022D01*
X011368Y020020D01*
X011373Y020015D01*
X011375Y020008D01*
X011373Y020001D01*
X011368Y019996D01*
X011361Y019994D01*
X011354Y019996D01*
X011349Y020001D01*
X011347Y020008D01*
D21*
X015819Y017465D02*
X015819Y017071D01*
X016449Y017071D01*
X016449Y017465D01*
X015819Y017465D01*
X015819Y016963D02*
X015819Y016633D01*
X016449Y016633D01*
X016449Y016963D01*
X015819Y016963D01*
X015819Y016483D02*
X015819Y016153D01*
X016449Y016153D01*
X016449Y016483D01*
X015819Y016483D01*
X016264Y016476D02*
X016264Y016448D01*
X016268Y016448D01*
X016295Y016476D01*
X016264Y016448D02*
X016295Y016417D01*
X016264Y016417D02*
X016264Y016448D01*
X016264Y016897D02*
X016264Y016928D01*
X016268Y016928D01*
X016295Y016956D01*
X016264Y016956D02*
X016264Y016928D01*
X016295Y016897D01*
X016279Y017083D02*
X016279Y017122D01*
X016276Y017103D02*
X016256Y017083D01*
X016276Y017103D02*
X016256Y017122D01*
X014359Y012641D02*
X013056Y012641D01*
X013056Y011475D01*
X014359Y011475D01*
X014359Y012641D01*
D22*
X014581Y023686D03*
D23*
X012854Y011521D02*
X012854Y011285D01*
X012381Y011285D02*
X012381Y011521D01*
D24*
X013698Y011159D03*
D25*
X013072Y010166D03*
D26*
X014501Y021806D03*
M02*
