G75*
%MOIN*%
%OFA0B0*%
%FSLAX24Y24*%
%IPPOS*%
%LPD*%
%AMOC8*
5,1,8,0,0,1.08239X$1,22.5*
%
%ADD10C,0.0051*%
%ADD11C,0.0060*%
%ADD12C,0.0397*%
%ADD13R,0.0984X0.0591*%
%ADD14R,0.2756X0.2756*%
%ADD15R,0.0276X0.0354*%
%ADD16R,0.0354X0.0276*%
%ADD17C,0.0515*%
%ADD18C,0.0000*%
%ADD19C,0.0600*%
%ADD20C,0.0240*%
%ADD21C,0.0100*%
%ADD22C,0.0120*%
%ADD23OC8,0.0240*%
%ADD24C,0.0660*%
%ADD25C,0.0160*%
%ADD26C,0.0500*%
%ADD27C,0.0396*%
%ADD28C,0.0400*%
%ADD29C,0.0560*%
D10*
X000485Y000126D02*
X000485Y002704D01*
X000485Y000893D02*
X001509Y000791D01*
X001509Y000768D02*
X000485Y000893D01*
X001509Y000996D01*
X001509Y001019D02*
X001509Y000768D01*
X001509Y000842D02*
X000485Y000893D01*
X001509Y000944D01*
X001509Y001019D02*
X000485Y000893D01*
X026993Y000893D01*
X025970Y000791D01*
X025970Y000768D02*
X026993Y000893D01*
X025970Y000996D01*
X025970Y001019D02*
X025970Y000768D01*
X025970Y000842D02*
X026993Y000893D01*
X025970Y000944D01*
X025970Y001019D02*
X026993Y000893D01*
X026993Y000126D02*
X026993Y002704D01*
X029840Y002704D01*
X029072Y002704D02*
X029174Y003728D01*
X029198Y003728D02*
X029072Y002704D01*
X028970Y003728D01*
X028946Y003728D02*
X029198Y003728D01*
X029123Y003728D02*
X029072Y002704D01*
X029021Y003728D01*
X028946Y003728D02*
X029072Y002704D01*
X029072Y028543D01*
X029174Y027519D01*
X029198Y027519D02*
X029072Y028543D01*
X028970Y027519D01*
X028946Y027519D02*
X029198Y027519D01*
X029123Y027519D02*
X029072Y028543D01*
X029021Y027519D01*
X028946Y027519D02*
X029072Y028543D01*
X029840Y028543D02*
X026993Y028543D01*
D11*
X028282Y017080D02*
X028389Y017080D01*
X028496Y016974D01*
X028602Y017080D01*
X028709Y017080D01*
X028816Y016974D01*
X028816Y016760D01*
X028709Y016653D01*
X028709Y016436D02*
X028602Y016436D01*
X028496Y016329D01*
X028496Y016009D01*
X028709Y016009D01*
X028816Y016115D01*
X028816Y016329D01*
X028709Y016436D01*
X028282Y016222D02*
X028496Y016009D01*
X028282Y016222D02*
X028175Y016436D01*
X028282Y016653D02*
X028175Y016760D01*
X028175Y016974D01*
X028282Y017080D01*
X028496Y016974D02*
X028496Y016867D01*
X028709Y015793D02*
X028816Y015793D01*
X028816Y015686D01*
X028709Y015686D01*
X028709Y015793D01*
X028709Y015469D02*
X028816Y015362D01*
X028816Y015149D01*
X028709Y015042D01*
X028496Y015042D02*
X028389Y015255D01*
X028389Y015362D01*
X028496Y015469D01*
X028709Y015469D01*
X028496Y015042D02*
X028175Y015042D01*
X028175Y015469D01*
X028175Y014824D02*
X028282Y014611D01*
X028496Y014397D01*
X028496Y014718D01*
X028602Y014824D01*
X028709Y014824D01*
X028816Y014718D01*
X028816Y014504D01*
X028709Y014397D01*
X028496Y014397D01*
X015196Y001683D02*
X015196Y001577D01*
X015089Y001470D01*
X015196Y001363D01*
X015196Y001256D01*
X015089Y001149D01*
X014876Y001149D01*
X014769Y001256D01*
X014551Y001256D02*
X014445Y001149D01*
X014231Y001149D01*
X014124Y001256D01*
X013909Y001256D02*
X013909Y001149D01*
X013802Y001149D01*
X013802Y001256D01*
X013909Y001256D01*
X014124Y001683D02*
X014231Y001790D01*
X014445Y001790D01*
X014551Y001683D01*
X014551Y001577D01*
X014445Y001470D01*
X014551Y001363D01*
X014551Y001256D01*
X014445Y001470D02*
X014338Y001470D01*
X014769Y001683D02*
X014876Y001790D01*
X015089Y001790D01*
X015196Y001683D01*
X015089Y001470D02*
X014983Y001470D01*
X013585Y001683D02*
X013158Y001256D01*
X013158Y001149D01*
X012940Y001256D02*
X012940Y001363D01*
X012833Y001470D01*
X012513Y001470D01*
X012513Y001256D01*
X012620Y001149D01*
X012833Y001149D01*
X012940Y001256D01*
X012727Y001683D02*
X012513Y001470D01*
X012727Y001683D02*
X012940Y001790D01*
X013158Y001790D02*
X013585Y001790D01*
X013585Y001683D01*
D12*
X013318Y009274D02*
X013318Y009670D01*
X012826Y009670D02*
X012826Y009274D01*
X012813Y014344D02*
X012813Y014741D01*
X012321Y014741D02*
X012321Y014344D01*
X013305Y014344D02*
X013305Y014741D01*
X013797Y014741D02*
X013797Y014344D01*
X014289Y014344D02*
X014289Y014741D01*
X014781Y014741D02*
X014781Y014344D01*
X015273Y014344D02*
X015273Y014741D01*
X015239Y022301D02*
X015239Y022698D01*
X014747Y022698D02*
X014747Y022301D01*
X014255Y022301D02*
X014255Y022698D01*
X013763Y022698D02*
X013763Y022301D01*
D13*
X020732Y022712D03*
X020732Y021331D03*
X020732Y019520D03*
X020732Y018137D03*
X020732Y016326D03*
X020732Y014949D03*
X020732Y013138D03*
X020732Y011763D03*
X020732Y009952D03*
X020732Y008576D03*
X020732Y006764D03*
X020732Y005378D03*
X020732Y003567D03*
X006572Y003567D03*
X006572Y005378D03*
X006572Y006764D03*
X006572Y008576D03*
X006572Y009952D03*
X006572Y011763D03*
X006572Y013138D03*
X006572Y014949D03*
X006572Y016326D03*
X006572Y018137D03*
X006572Y019520D03*
X006572Y021331D03*
X006572Y022712D03*
X006572Y024523D03*
X006572Y025902D03*
X006572Y027713D03*
X020732Y027713D03*
X020732Y025902D03*
X020732Y024523D03*
D14*
X023448Y023617D03*
X023448Y026807D03*
X023448Y020425D03*
X023448Y017232D03*
X023448Y014043D03*
X023448Y010857D03*
X023448Y007670D03*
X023448Y004473D03*
X003855Y004473D03*
X003855Y007670D03*
X003855Y010857D03*
X003855Y014043D03*
X003855Y017232D03*
X003855Y020425D03*
X003855Y023617D03*
X003855Y026807D03*
D15*
X007818Y025918D03*
X008330Y025918D03*
X008330Y022718D03*
X007818Y022718D03*
X007818Y019518D03*
X008330Y019518D03*
X008330Y016328D03*
X007818Y016328D03*
X007818Y013138D03*
X008330Y013138D03*
X008330Y009978D03*
X007818Y009978D03*
X007818Y006748D03*
X008330Y006748D03*
X008330Y003508D03*
X007818Y003508D03*
X009268Y003498D03*
X009780Y003498D03*
X018978Y005378D03*
X019490Y005378D03*
X019490Y008588D03*
X018978Y008588D03*
X018978Y011768D03*
X019490Y011768D03*
X019490Y014948D03*
X018978Y014948D03*
X018978Y018138D03*
X019490Y018138D03*
X019490Y021328D03*
X018978Y021328D03*
X018978Y024518D03*
X019490Y024518D03*
X019490Y027708D03*
X018978Y027708D03*
D16*
X018034Y027714D03*
X018034Y027202D03*
X018034Y024524D03*
X018034Y024012D03*
X018034Y021324D03*
X018034Y020812D03*
X018424Y018154D03*
X018424Y017642D03*
X018034Y014954D03*
X018034Y014442D03*
X018034Y011764D03*
X018034Y011252D03*
X018034Y008594D03*
X018034Y008082D03*
X018034Y005374D03*
X018034Y004862D03*
X009294Y006232D03*
X009294Y006744D03*
X009294Y009462D03*
X009294Y009974D03*
X009294Y012622D03*
X009294Y013134D03*
X009294Y015822D03*
X009294Y016334D03*
X009294Y019022D03*
X009294Y019534D03*
X009294Y022202D03*
X009294Y022714D03*
X009294Y025422D03*
X009294Y025934D03*
D17*
X014158Y024433D02*
X014158Y023918D01*
X014945Y023918D02*
X014945Y024433D01*
D18*
X016029Y026571D02*
X016031Y026597D01*
X016037Y026623D01*
X016047Y026648D01*
X016060Y026671D01*
X016076Y026691D01*
X016096Y026709D01*
X016118Y026724D01*
X016141Y026736D01*
X016167Y026744D01*
X016193Y026748D01*
X016219Y026748D01*
X016245Y026744D01*
X016271Y026736D01*
X016295Y026724D01*
X016316Y026709D01*
X016336Y026691D01*
X016352Y026671D01*
X016365Y026648D01*
X016375Y026623D01*
X016381Y026597D01*
X016383Y026571D01*
X016381Y026545D01*
X016375Y026519D01*
X016365Y026494D01*
X016352Y026471D01*
X016336Y026451D01*
X016316Y026433D01*
X016294Y026418D01*
X016271Y026406D01*
X016245Y026398D01*
X016219Y026394D01*
X016193Y026394D01*
X016167Y026398D01*
X016141Y026406D01*
X016117Y026418D01*
X016096Y026433D01*
X016076Y026451D01*
X016060Y026471D01*
X016047Y026494D01*
X016037Y026519D01*
X016031Y026545D01*
X016029Y026571D01*
X017210Y026571D02*
X017212Y026597D01*
X017218Y026623D01*
X017228Y026648D01*
X017241Y026671D01*
X017257Y026691D01*
X017277Y026709D01*
X017299Y026724D01*
X017322Y026736D01*
X017348Y026744D01*
X017374Y026748D01*
X017400Y026748D01*
X017426Y026744D01*
X017452Y026736D01*
X017476Y026724D01*
X017497Y026709D01*
X017517Y026691D01*
X017533Y026671D01*
X017546Y026648D01*
X017556Y026623D01*
X017562Y026597D01*
X017564Y026571D01*
X017562Y026545D01*
X017556Y026519D01*
X017546Y026494D01*
X017533Y026471D01*
X017517Y026451D01*
X017497Y026433D01*
X017475Y026418D01*
X017452Y026406D01*
X017426Y026398D01*
X017400Y026394D01*
X017374Y026394D01*
X017348Y026398D01*
X017322Y026406D01*
X017298Y026418D01*
X017277Y026433D01*
X017257Y026451D01*
X017241Y026471D01*
X017228Y026494D01*
X017218Y026519D01*
X017212Y026545D01*
X017210Y026571D01*
X014766Y009562D02*
X014768Y009588D01*
X014774Y009614D01*
X014784Y009639D01*
X014797Y009662D01*
X014813Y009682D01*
X014833Y009700D01*
X014855Y009715D01*
X014878Y009727D01*
X014904Y009735D01*
X014930Y009739D01*
X014956Y009739D01*
X014982Y009735D01*
X015008Y009727D01*
X015032Y009715D01*
X015053Y009700D01*
X015073Y009682D01*
X015089Y009662D01*
X015102Y009639D01*
X015112Y009614D01*
X015118Y009588D01*
X015120Y009562D01*
X015118Y009536D01*
X015112Y009510D01*
X015102Y009485D01*
X015089Y009462D01*
X015073Y009442D01*
X015053Y009424D01*
X015031Y009409D01*
X015008Y009397D01*
X014982Y009389D01*
X014956Y009385D01*
X014930Y009385D01*
X014904Y009389D01*
X014878Y009397D01*
X014854Y009409D01*
X014833Y009424D01*
X014813Y009442D01*
X014797Y009462D01*
X014784Y009485D01*
X014774Y009510D01*
X014768Y009536D01*
X014766Y009562D01*
X014766Y008381D02*
X014768Y008407D01*
X014774Y008433D01*
X014784Y008458D01*
X014797Y008481D01*
X014813Y008501D01*
X014833Y008519D01*
X014855Y008534D01*
X014878Y008546D01*
X014904Y008554D01*
X014930Y008558D01*
X014956Y008558D01*
X014982Y008554D01*
X015008Y008546D01*
X015032Y008534D01*
X015053Y008519D01*
X015073Y008501D01*
X015089Y008481D01*
X015102Y008458D01*
X015112Y008433D01*
X015118Y008407D01*
X015120Y008381D01*
X015118Y008355D01*
X015112Y008329D01*
X015102Y008304D01*
X015089Y008281D01*
X015073Y008261D01*
X015053Y008243D01*
X015031Y008228D01*
X015008Y008216D01*
X014982Y008208D01*
X014956Y008204D01*
X014930Y008204D01*
X014904Y008208D01*
X014878Y008216D01*
X014854Y008228D01*
X014833Y008243D01*
X014813Y008261D01*
X014797Y008281D01*
X014784Y008304D01*
X014774Y008329D01*
X014768Y008355D01*
X014766Y008381D01*
D19*
X025713Y012118D02*
X026313Y012118D01*
X026313Y013118D02*
X025713Y013118D01*
X025713Y014118D02*
X026313Y014118D01*
X026313Y015118D02*
X025713Y015118D01*
X025713Y016118D02*
X026313Y016118D01*
X026313Y017118D02*
X025713Y017118D01*
X025713Y018118D02*
X026313Y018118D01*
X026313Y019118D02*
X025713Y019118D01*
X001750Y019161D02*
X001150Y019161D01*
X001150Y018161D02*
X001750Y018161D01*
X001750Y017161D02*
X001150Y017161D01*
X001150Y016161D02*
X001750Y016161D01*
X001750Y015161D02*
X001150Y015161D01*
X001150Y014161D02*
X001750Y014161D01*
X001750Y013161D02*
X001150Y013161D01*
X001150Y012161D02*
X001750Y012161D01*
D20*
X007384Y017588D03*
X007544Y017058D03*
X010073Y017522D03*
X011903Y017603D03*
X013204Y016148D03*
X013204Y015818D03*
X011934Y016098D03*
X009204Y013708D03*
X009794Y010678D03*
X009964Y007418D03*
X010074Y004218D03*
X017354Y005378D03*
X017484Y008588D03*
X017434Y011768D03*
X015305Y011927D03*
X017604Y014958D03*
X017324Y015208D03*
X016834Y015318D03*
X016584Y015018D03*
X015294Y016108D03*
X015274Y015718D03*
X015054Y015408D03*
X015494Y017778D03*
X015624Y018778D03*
X015494Y019128D03*
X014684Y020138D03*
X014294Y020378D03*
X013714Y020078D03*
X013974Y019788D03*
X013414Y020418D03*
X013544Y021448D03*
X013974Y021408D03*
X014634Y021148D03*
X015484Y021438D03*
X015514Y021928D03*
X016654Y022138D03*
X016944Y021938D03*
X017484Y021318D03*
X016964Y020408D03*
X017104Y018928D03*
X016931Y018331D03*
X017634Y018388D03*
X019722Y019520D03*
X019914Y018928D03*
X019294Y020528D03*
X017484Y024518D03*
X016458Y025744D03*
X017424Y027708D03*
X012517Y022417D03*
X013024Y021398D03*
X012226Y019740D03*
X010654Y019358D03*
X010415Y020551D03*
X008934Y020058D03*
X008765Y020637D03*
X007854Y022118D03*
X006804Y020638D03*
X009194Y026478D03*
X018754Y015788D03*
X019274Y015738D03*
X019594Y015348D03*
D21*
X017464Y015348D01*
X017324Y015208D01*
X017604Y014958D02*
X018030Y014958D01*
X018034Y014954D01*
X018754Y015788D02*
X016784Y015788D01*
X016584Y015588D01*
X016584Y015018D01*
X016834Y015318D02*
X017074Y015558D01*
X019094Y015558D01*
X019274Y015738D01*
X018368Y018128D02*
X018424Y018154D01*
X018190Y018388D01*
X017634Y018388D01*
X017104Y018928D02*
X019914Y018928D01*
X019294Y020528D02*
X021324Y020528D01*
X021714Y020915D01*
X021714Y021529D01*
X021324Y021918D01*
X016954Y021918D01*
X016944Y021938D01*
X016654Y022138D02*
X016654Y020718D01*
X016964Y020408D01*
X017484Y021318D02*
X018028Y021318D01*
X018034Y021324D01*
X015624Y018778D02*
X015584Y018768D01*
X016584Y017768D01*
X016584Y017398D01*
X015294Y016108D01*
X015014Y015978D02*
X015274Y015718D01*
X015014Y015978D02*
X015014Y016338D01*
X016184Y017508D01*
X016184Y017798D01*
X015374Y018608D01*
X015374Y018898D01*
X015494Y019018D01*
X015494Y019128D01*
X014684Y018928D02*
X014684Y020138D01*
X014294Y020378D02*
X014294Y021588D01*
X014634Y021928D01*
X015514Y021928D01*
X015484Y021438D02*
X015204Y021148D01*
X014634Y021148D01*
X013974Y021408D02*
X013974Y019788D01*
X013714Y020078D02*
X013714Y021278D01*
X013544Y021448D01*
X013414Y021008D02*
X013414Y020418D01*
X013414Y021008D02*
X013024Y021398D01*
X012226Y022126D02*
X012517Y022417D01*
X012226Y022126D02*
X012226Y019740D01*
X010654Y019418D02*
X010654Y019358D01*
X010654Y019418D02*
X010194Y019878D01*
X009114Y019878D01*
X008934Y020058D01*
X008765Y020637D02*
X010328Y020637D01*
X010415Y020551D01*
X008334Y019818D02*
X008334Y019522D01*
X008330Y019518D01*
X008334Y019818D02*
X007514Y020638D01*
X006804Y020638D01*
X010670Y017511D02*
X010670Y015889D01*
X010611Y015830D01*
X009204Y013708D02*
X009290Y013622D01*
X009290Y013138D01*
X009030Y010678D02*
X009794Y010678D01*
X009030Y010678D02*
X008330Y009978D01*
X009000Y007418D02*
X009964Y007418D01*
X009000Y007418D02*
X008330Y006748D01*
X009040Y004218D02*
X010074Y004218D01*
X009040Y004218D02*
X008330Y003508D01*
X017354Y005378D02*
X018030Y005378D01*
X018034Y005374D01*
X018028Y008588D02*
X017484Y008588D01*
X018028Y008588D02*
X018034Y008594D01*
X018034Y011764D02*
X018030Y011768D01*
X017434Y011768D01*
X014781Y014543D02*
X014781Y014901D01*
X014374Y015308D01*
X013714Y015308D01*
X013204Y015818D01*
X012944Y015718D02*
X012944Y016092D01*
X012997Y016145D01*
X013201Y016145D01*
X013204Y016148D01*
X012944Y015718D02*
X013564Y015098D01*
X014054Y015098D01*
X014289Y014863D01*
X014289Y014543D01*
X014374Y015308D02*
X014374Y017178D01*
X014949Y017753D01*
X015494Y017753D01*
X015494Y017778D01*
X015834Y017778D02*
X015834Y017548D01*
X014704Y016418D01*
X014704Y015758D01*
X015054Y015408D01*
X014949Y017753D02*
X014294Y018408D01*
X014294Y020378D01*
X014684Y018928D02*
X015834Y017778D01*
X014294Y018408D02*
X014283Y018419D01*
X014747Y022500D02*
X014747Y023978D01*
X014945Y024176D01*
X014755Y023985D01*
X017484Y024518D02*
X018028Y024518D01*
X018034Y024524D01*
X018028Y027708D02*
X017424Y027708D01*
X018028Y027708D02*
X018034Y027714D01*
X009294Y026378D02*
X009294Y025934D01*
X009294Y026378D02*
X009194Y026478D01*
X008324Y016334D02*
X008330Y016328D01*
D22*
X009288Y016328D01*
X009294Y016334D01*
X008324Y016334D02*
X008324Y016614D01*
X007879Y017059D01*
X007544Y017059D01*
X007544Y017058D01*
X007457Y017522D02*
X007384Y017588D01*
X007457Y017522D02*
X010073Y017522D01*
X011903Y017603D02*
X011934Y017573D01*
X011934Y016098D01*
X011903Y017603D02*
X012719Y018419D01*
X014283Y018419D01*
X017534Y017638D02*
X018420Y017638D01*
X018424Y017642D01*
X018440Y018138D02*
X018424Y018154D01*
X018440Y018138D02*
X018978Y018138D01*
X019490Y018138D02*
X019491Y018137D01*
X020732Y018137D01*
X018034Y019600D02*
X018034Y020812D01*
X018034Y021324D02*
X018038Y021328D01*
X018978Y021328D01*
X019490Y021328D02*
X019492Y021331D01*
X020732Y021331D01*
X018074Y022712D02*
X018074Y023972D01*
X018034Y024012D01*
X018040Y024518D02*
X018034Y024524D01*
X018040Y024518D02*
X018978Y024518D01*
X019490Y024518D02*
X019494Y024523D01*
X020732Y024523D01*
X020732Y027713D02*
X019494Y027713D01*
X019490Y027708D01*
X018978Y027708D02*
X018040Y027708D01*
X018034Y027714D01*
X016458Y025744D02*
X016458Y025728D01*
X016711Y025475D01*
X009294Y025934D02*
X009278Y025918D01*
X008330Y025918D01*
X007818Y025918D02*
X007802Y025902D01*
X006572Y025902D01*
X006572Y022712D02*
X007812Y022712D01*
X007818Y022718D01*
X008330Y022718D02*
X008330Y022594D01*
X007854Y022118D01*
X008330Y022718D02*
X009290Y022718D01*
X009294Y022714D01*
X009294Y019534D02*
X009278Y019518D01*
X008330Y019518D01*
X007818Y019518D02*
X007816Y019520D01*
X006572Y019520D01*
X006572Y016326D02*
X007816Y016326D01*
X007818Y016328D01*
X007817Y013138D02*
X007818Y013138D01*
X007817Y013138D02*
X006572Y013138D01*
X008330Y013138D02*
X009290Y013138D01*
X009294Y013134D01*
X009290Y009978D02*
X008330Y009978D01*
X007818Y009978D02*
X007792Y009952D01*
X006572Y009952D01*
X009290Y009978D02*
X009294Y009974D01*
X009290Y006748D02*
X008330Y006748D01*
X007818Y006748D02*
X007801Y006764D01*
X006572Y006764D01*
X009290Y006748D02*
X009294Y006744D01*
X011159Y005373D02*
X011159Y004877D01*
X009780Y003498D01*
X009278Y003508D02*
X009268Y003498D01*
X009278Y003508D02*
X008330Y003508D01*
X007818Y003508D02*
X007778Y003548D01*
X006674Y003548D01*
X006655Y003567D01*
X006572Y003567D01*
X015305Y011927D02*
X016023Y011927D01*
X016044Y013098D01*
X018034Y013258D02*
X018034Y014442D01*
X018034Y014954D02*
X018090Y014954D01*
X018094Y014958D01*
X018968Y014958D01*
X018978Y014948D01*
X019490Y014949D02*
X019490Y014948D01*
X019490Y014949D02*
X020732Y014949D01*
X020732Y011763D02*
X019495Y011763D01*
X019490Y011768D01*
X018978Y011768D02*
X018904Y011768D01*
X018894Y011758D01*
X018040Y011758D01*
X018034Y011764D01*
X018034Y011252D02*
X018034Y010112D01*
X018034Y008594D02*
X018040Y008588D01*
X018978Y008588D01*
X019490Y008588D02*
X019502Y008576D01*
X020732Y008576D01*
X018034Y008082D02*
X018034Y006804D01*
X018038Y005378D02*
X018034Y005374D01*
X018038Y005378D02*
X018978Y005378D01*
X019490Y005378D02*
X020732Y005378D01*
X018034Y004862D02*
X017543Y004372D01*
X017543Y004098D01*
D23*
X010611Y015830D03*
X010670Y017511D03*
D24*
X011274Y018108D02*
X011245Y018137D01*
X009304Y018137D01*
X006572Y018137D01*
X006572Y014949D02*
X009304Y014949D01*
X011243Y014949D01*
X011274Y014918D01*
X011274Y011778D01*
X009254Y011778D01*
X006704Y011778D01*
X006689Y011763D01*
X006572Y011763D01*
X006572Y008576D02*
X009364Y008576D01*
X011216Y008576D01*
X011274Y008518D01*
X011274Y005488D01*
X011159Y005373D01*
X011134Y005348D01*
X009344Y005348D01*
X006704Y005348D01*
X006674Y005378D01*
X006572Y005378D01*
X011274Y008518D02*
X011274Y011778D01*
X011274Y014918D02*
X011274Y018108D01*
X011274Y021258D01*
X011201Y021331D01*
X009324Y021331D01*
X006572Y021331D01*
X006572Y024523D02*
X009194Y024523D01*
X009911Y024523D01*
X011269Y024523D01*
X011274Y024528D01*
X011274Y024488D01*
X011274Y021258D01*
X011274Y024528D02*
X011274Y026368D01*
X009929Y027713D01*
X006572Y027713D01*
X016044Y024808D02*
X016044Y022528D01*
X016228Y022712D01*
X018074Y022712D01*
X020732Y022712D01*
X020732Y025902D02*
X018034Y025902D01*
X017138Y025902D01*
X016711Y025475D01*
X016144Y024908D01*
X016044Y024808D01*
X016044Y022528D02*
X016044Y019438D01*
X016044Y019218D01*
X016931Y018331D01*
X017534Y017728D01*
X017534Y017638D01*
X017534Y016326D01*
X017532Y016328D01*
X016484Y016328D01*
X016044Y015888D01*
X016044Y013098D01*
X016083Y013138D01*
X017914Y013138D01*
X020732Y013138D01*
X020732Y009952D02*
X018194Y009952D01*
X016070Y009952D01*
X016044Y009978D01*
X016052Y006573D01*
X016044Y008337D01*
X016044Y006918D01*
X016044Y006256D01*
X016044Y005597D01*
X017543Y004098D01*
X018074Y003567D01*
X020732Y003567D01*
X020732Y006764D02*
X017994Y006764D01*
X016197Y006764D01*
X016044Y006918D01*
X016044Y009978D02*
X016044Y013098D01*
X017534Y016326D02*
X018084Y016326D01*
X020732Y016326D01*
X020732Y019520D02*
X019722Y019520D01*
X018114Y019520D01*
X016125Y019520D01*
X016044Y019438D01*
D25*
X018034Y019600D02*
X018114Y019520D01*
X018424Y016406D02*
X018084Y016326D01*
X018034Y013258D02*
X017914Y013138D01*
X018034Y010112D02*
X018194Y009952D01*
X018034Y006804D02*
X017994Y006764D01*
X018034Y003607D02*
X018074Y003567D01*
X009344Y005348D02*
X009294Y005398D01*
X009294Y006232D01*
X009364Y008576D02*
X009294Y008646D01*
X009294Y009462D01*
X009254Y011778D02*
X009294Y011818D01*
X009294Y012622D01*
X009304Y014949D02*
X009294Y014959D01*
X009294Y015822D01*
X009304Y018137D02*
X009294Y018147D01*
X009294Y019022D01*
X009324Y021331D02*
X009294Y021361D01*
X009294Y022202D01*
X009194Y024523D02*
X009294Y024623D01*
X009294Y025422D01*
X018034Y025902D02*
X018034Y027202D01*
D26*
X016144Y024908D02*
X015411Y024176D01*
X014945Y024176D01*
X011274Y024488D02*
X009946Y024488D01*
X009911Y024523D01*
X003855Y023617D02*
X003848Y023610D01*
X003064Y023610D01*
X003855Y020425D02*
X003879Y020401D01*
X003879Y019815D01*
X003855Y017232D02*
X003230Y016606D01*
X003230Y016437D01*
X003281Y014889D02*
X003281Y014618D01*
X003855Y014043D01*
X003859Y011909D02*
X003859Y010862D01*
X003855Y010857D01*
X003855Y007670D02*
X003850Y007665D01*
X003096Y007665D01*
X003214Y004468D02*
X003851Y004468D01*
X003855Y004473D01*
X023448Y004473D02*
X023453Y004468D01*
X024249Y004468D01*
X024415Y007681D02*
X023459Y007681D01*
X023448Y007670D01*
X023448Y010857D02*
X023450Y010859D01*
X023450Y011476D01*
X023448Y014043D02*
X024068Y014663D01*
X024068Y014901D01*
X024017Y016464D02*
X024017Y016663D01*
X023448Y017232D01*
X023466Y019976D02*
X023466Y020408D01*
X023448Y020425D01*
X023448Y023617D02*
X023452Y023622D01*
X024198Y023622D01*
X023448Y026807D02*
X023455Y026815D01*
X024084Y026815D01*
X003855Y026807D02*
X003840Y026822D01*
X003245Y026822D01*
D27*
X003245Y026822D03*
X003064Y023610D03*
X003879Y019815D03*
X003230Y016437D03*
X003281Y014889D03*
X003859Y011909D03*
X003096Y007665D03*
X003214Y004468D03*
X014340Y006240D03*
X023450Y011476D03*
X024068Y014901D03*
X024017Y016464D03*
X023466Y019976D03*
X024198Y023622D03*
X024084Y026815D03*
X011274Y024488D03*
X024415Y007681D03*
X024249Y004468D03*
D28*
X016044Y006256D02*
X016028Y006240D01*
X014340Y006240D01*
D29*
X023186Y004472D02*
X023218Y004504D01*
X023417Y004504D01*
X023448Y004473D01*
X023202Y004452D02*
X023186Y004437D01*
X023186Y004472D01*
X023448Y020425D02*
X023460Y020437D01*
X023452Y023614D02*
X023448Y023617D01*
M02*
