G75*
%MOIN*%
%OFA0B0*%
%FSLAX24Y24*%
%IPPOS*%
%LPD*%
%AMOC8*
5,1,8,0,0,1.08239X$1,22.5*
%
%ADD10R,0.0207X0.0157*%
%ADD11R,0.0157X0.0207*%
%ADD12R,0.2333X0.2333*%
%ADD13R,0.0415X0.0190*%
%ADD14R,0.0190X0.0415*%
%ADD15R,0.1004X0.0807*%
%ADD16R,0.0198X0.0198*%
%ADD17R,0.0434X0.0474*%
%ADD18C,0.0477*%
%ADD19R,0.0356X0.0434*%
%ADD20R,0.0434X0.0356*%
%ADD21R,0.0316X0.0395*%
%ADD22R,0.0218X0.0395*%
%ADD23C,0.0595*%
%ADD24R,0.0346X0.0178*%
%ADD25R,0.0552X0.0395*%
%ADD26R,0.0789X0.0710*%
%ADD27R,0.0671X0.0356*%
%ADD28R,0.0395X0.0474*%
%ADD29C,0.0434*%
%ADD30R,0.0395X0.0552*%
%ADD31R,0.0356X0.0671*%
%ADD32R,0.0474X0.0395*%
%ADD33R,0.1064X0.0671*%
%ADD34R,0.2836X0.2836*%
%ADD35R,0.0474X0.0474*%
%ADD36C,0.0680*%
%ADD37C,0.0320*%
%ADD38OC8,0.0320*%
%ADD39C,0.0476*%
D10*
X012223Y016749D03*
X012223Y017004D03*
X012223Y017260D03*
X012223Y017516D03*
X012223Y017772D03*
X012223Y018028D03*
X012223Y018284D03*
X012223Y018540D03*
X012223Y018796D03*
X012223Y019052D03*
X012223Y019308D03*
X015205Y019308D03*
X015205Y019052D03*
X015205Y018796D03*
X015205Y018540D03*
X015205Y018284D03*
X015205Y018028D03*
X015205Y017772D03*
X015205Y017516D03*
X015205Y017260D03*
X015205Y017004D03*
X015205Y016749D03*
D11*
X014993Y016537D03*
X014737Y016537D03*
X014481Y016537D03*
X014226Y016537D03*
X013970Y016537D03*
X013714Y016537D03*
X013458Y016537D03*
X013202Y016537D03*
X012946Y016537D03*
X012690Y016537D03*
X012434Y016537D03*
X012434Y019519D03*
X012690Y019519D03*
X012946Y019519D03*
X013202Y019519D03*
X013458Y019519D03*
X013714Y019519D03*
X013970Y019519D03*
X014226Y019519D03*
X014481Y019519D03*
X014737Y019519D03*
X014993Y019519D03*
D12*
X013714Y018028D03*
D13*
X017616Y019393D03*
X017616Y019983D03*
X019171Y019983D03*
X019171Y019393D03*
X008931Y019663D03*
X008931Y020253D03*
X007376Y020253D03*
X007376Y019663D03*
D14*
X007662Y019269D03*
X007859Y019269D03*
X008055Y019269D03*
X008252Y019269D03*
X008449Y019269D03*
X008646Y019269D03*
X008646Y020637D03*
X008449Y020637D03*
X008252Y020637D03*
X008055Y020637D03*
X007859Y020637D03*
X007662Y020637D03*
X017902Y020367D03*
X018099Y020367D03*
X018295Y020367D03*
X018492Y020367D03*
X018689Y020367D03*
X018886Y020367D03*
X018886Y018999D03*
X018689Y018999D03*
X018492Y018999D03*
X018295Y018999D03*
X018099Y018999D03*
X017902Y018999D03*
D15*
X018394Y019688D03*
X008154Y019958D03*
D16*
X010415Y018932D03*
X010415Y018695D03*
X011223Y018414D03*
X011467Y018414D03*
X011725Y018334D03*
X011969Y018334D03*
X011968Y017988D03*
X011724Y017988D03*
X013468Y016145D03*
X013468Y015909D03*
X015865Y017582D03*
X015871Y017806D03*
X016115Y017806D03*
X016109Y017582D03*
X011483Y020008D03*
X011239Y020008D03*
D17*
X011048Y019571D03*
X011658Y019571D03*
X011658Y018842D03*
X011048Y018842D03*
D18*
X013763Y022301D02*
X013763Y022698D01*
X014255Y022698D02*
X014255Y022301D01*
X014747Y022301D02*
X014747Y022698D01*
X015239Y022698D02*
X015239Y022301D01*
X015273Y014741D02*
X015273Y014344D01*
X014781Y014344D02*
X014781Y014741D01*
X014289Y014741D02*
X014289Y014344D01*
X013797Y014344D02*
X013797Y014741D01*
X013305Y014741D02*
X013305Y014344D01*
X012813Y014344D02*
X012813Y014741D01*
X012321Y014741D02*
X012321Y014344D01*
X012826Y009670D02*
X012826Y009274D01*
X013318Y009274D02*
X013318Y009670D01*
D19*
X013442Y011159D03*
X013954Y011159D03*
X016938Y016318D03*
X016938Y016798D03*
X016948Y017268D03*
X017460Y017268D03*
X017450Y016798D03*
X017450Y016318D03*
X012915Y020671D03*
X012403Y020671D03*
X013245Y026681D03*
X013757Y026681D03*
D20*
X014674Y026925D03*
X014674Y026413D03*
X011413Y017264D03*
X011413Y016752D03*
D21*
X015819Y017268D03*
X016449Y017268D03*
D22*
X016409Y016798D03*
X016409Y016318D03*
X015858Y016318D03*
X015858Y016798D03*
D23*
X014945Y023918D02*
X014945Y024433D01*
X014158Y024433D02*
X014158Y023918D01*
D24*
X014270Y012353D03*
X014270Y012157D03*
X014270Y011960D03*
X014270Y011763D03*
X013158Y011763D03*
X013158Y011960D03*
X013158Y012157D03*
X013158Y012353D03*
D25*
X012618Y011758D03*
X012618Y011049D03*
D26*
X015287Y011872D03*
X015287Y012974D03*
D27*
X014254Y009857D03*
X014254Y008676D03*
X014254Y008085D03*
D28*
X014530Y007534D03*
X015357Y007534D03*
X015357Y010408D03*
X014530Y010408D03*
D29*
X014943Y009562D03*
X014943Y008381D03*
X016206Y026571D03*
X017387Y026571D03*
D30*
X014108Y013158D03*
X013399Y013158D03*
D31*
X015911Y025883D03*
X017092Y025883D03*
X017682Y025883D03*
D32*
X018233Y026158D03*
X018233Y026985D03*
X015359Y026985D03*
X015359Y026158D03*
D33*
X013800Y025756D03*
X013800Y027567D03*
D34*
X011084Y026661D03*
D35*
X010029Y023744D03*
X012021Y022716D03*
X012655Y022960D03*
X012186Y020181D03*
X012832Y020035D03*
X016359Y022626D03*
X020926Y018952D03*
X012257Y013724D03*
X011592Y013720D03*
X010942Y013724D03*
D36*
X001750Y014161D02*
X001150Y014161D01*
X001150Y015161D02*
X001750Y015161D01*
X001750Y016161D02*
X001150Y016161D01*
X001150Y017161D02*
X001750Y017161D01*
X001750Y018161D02*
X001150Y018161D01*
X001150Y019161D02*
X001750Y019161D01*
X001750Y013161D02*
X001150Y013161D01*
X001150Y012161D02*
X001750Y012161D01*
X025713Y012118D02*
X026313Y012118D01*
X026313Y013118D02*
X025713Y013118D01*
X025713Y014118D02*
X026313Y014118D01*
X026313Y015118D02*
X025713Y015118D01*
X025713Y016118D02*
X026313Y016118D01*
X026313Y017118D02*
X025713Y017118D01*
X025713Y018118D02*
X026313Y018118D01*
X026313Y019118D02*
X025713Y019118D01*
D37*
X019914Y018928D03*
X019722Y019520D03*
X019294Y020528D03*
X017484Y021318D03*
X016944Y021938D03*
X016654Y022138D03*
X015514Y021928D03*
X015484Y021438D03*
X014634Y021148D03*
X013974Y021408D03*
X013544Y021448D03*
X013024Y021398D03*
X012517Y022417D03*
X013414Y020418D03*
X013714Y020078D03*
X013974Y019788D03*
X014294Y020378D03*
X014684Y020138D03*
X015494Y019128D03*
X015624Y018778D03*
X015494Y017778D03*
X016931Y018331D03*
X017104Y018928D03*
X017634Y018388D03*
X016964Y020408D03*
X013204Y016148D03*
X013204Y015818D03*
X011934Y016098D03*
X011903Y017603D03*
X010073Y017522D03*
X010654Y019358D03*
X010415Y020551D03*
X008934Y020058D03*
X008765Y020637D03*
X007854Y022118D03*
X006804Y020638D03*
X007384Y017588D03*
X007544Y017058D03*
X009204Y013708D03*
X009794Y010678D03*
X009964Y007418D03*
X010074Y004218D03*
X017354Y005378D03*
X017484Y008588D03*
X017434Y011768D03*
X015305Y011927D03*
X017604Y014958D03*
X017324Y015208D03*
X016834Y015318D03*
X016584Y015018D03*
X015294Y016108D03*
X015274Y015718D03*
X015054Y015408D03*
X018754Y015788D03*
X019274Y015738D03*
X019594Y015348D03*
X012226Y019740D03*
X017484Y024518D03*
X016458Y025744D03*
X017424Y027708D03*
X009194Y026478D03*
D38*
X010670Y017511D03*
X010611Y015830D03*
D39*
X003214Y004468D03*
X003096Y007665D03*
X003859Y011909D03*
X003281Y014889D03*
X003230Y016437D03*
X003879Y019815D03*
X003064Y023610D03*
X003245Y026822D03*
X011274Y024488D03*
X023466Y019976D03*
X024017Y016464D03*
X024068Y014901D03*
X023450Y011476D03*
X024415Y007681D03*
X024249Y004468D03*
X014340Y006240D03*
X024198Y023622D03*
X024084Y026815D03*
M02*
